<mxfile host="app.diagrams.net" agent="Mozilla/5.0 (Windows NT 10.0; Win64; x64; rv:131.0) Gecko/20100101 Firefox/131.0" version="25.0.1">
  <diagram name="Page-1" id="X3W3mUFDzUe2rxusHgLR">
    <mxGraphModel dx="1562" dy="854" grid="1" gridSize="10" guides="1" tooltips="1" connect="1" arrows="1" fold="1" page="1" pageScale="1" pageWidth="1600" pageHeight="1200" math="0" shadow="0">
      <root>
        <mxCell id="0" />
        <mxCell id="1" parent="0" />
        <mxCell id="vlGGAMGWwkjEIU3gaFYN-7" value="View Map" style="ellipse;whiteSpace=wrap;html=1;" parent="1" vertex="1">
          <mxGeometry x="680" y="600" width="120" height="80" as="geometry" />
        </mxCell>
        <mxCell id="vlGGAMGWwkjEIU3gaFYN-12" style="edgeStyle=orthogonalEdgeStyle;rounded=0;orthogonalLoop=1;jettySize=auto;html=1;entryX=0;entryY=0.5;entryDx=0;entryDy=0;endArrow=none;endFill=0;exitX=0.5;exitY=0.5;exitDx=0;exitDy=0;exitPerimeter=0;" parent="1" source="vlGGAMGWwkjEIU3gaFYN-8" target="vlGGAMGWwkjEIU3gaFYN-7" edge="1">
          <mxGeometry relative="1" as="geometry" />
        </mxCell>
        <mxCell id="vlGGAMGWwkjEIU3gaFYN-20" style="edgeStyle=none;rounded=0;orthogonalLoop=1;jettySize=auto;html=1;exitX=0.5;exitY=0.5;exitDx=0;exitDy=0;exitPerimeter=0;entryX=0;entryY=0;entryDx=0;entryDy=0;endArrow=none;endFill=0;" parent="1" source="vlGGAMGWwkjEIU3gaFYN-8" target="vlGGAMGWwkjEIU3gaFYN-11" edge="1">
          <mxGeometry relative="1" as="geometry" />
        </mxCell>
        <mxCell id="vlGGAMGWwkjEIU3gaFYN-35" style="edgeStyle=none;rounded=0;orthogonalLoop=1;jettySize=auto;html=1;exitX=0.5;exitY=0.5;exitDx=0;exitDy=0;exitPerimeter=0;entryX=0;entryY=0.5;entryDx=0;entryDy=0;endArrow=none;endFill=0;" parent="1" source="vlGGAMGWwkjEIU3gaFYN-8" target="vlGGAMGWwkjEIU3gaFYN-34" edge="1">
          <mxGeometry relative="1" as="geometry" />
        </mxCell>
        <mxCell id="vlGGAMGWwkjEIU3gaFYN-8" value="&lt;div&gt;Guest User&lt;/div&gt;" style="shape=umlActor;verticalLabelPosition=bottom;verticalAlign=top;html=1;outlineConnect=0;" parent="1" vertex="1">
          <mxGeometry x="520" y="600" width="40" height="80" as="geometry" />
        </mxCell>
        <mxCell id="vlGGAMGWwkjEIU3gaFYN-13" style="edgeStyle=orthogonalEdgeStyle;rounded=0;orthogonalLoop=1;jettySize=auto;html=1;exitX=0;exitY=0.5;exitDx=0;exitDy=0;entryX=1;entryY=0.5;entryDx=0;entryDy=0;dashed=1;endArrow=open;endFill=0;" parent="1" source="vlGGAMGWwkjEIU3gaFYN-9" target="vlGGAMGWwkjEIU3gaFYN-7" edge="1">
          <mxGeometry relative="1" as="geometry" />
        </mxCell>
        <mxCell id="vlGGAMGWwkjEIU3gaFYN-18" value="&lt;div&gt;&amp;lt;&amp;lt;extend&amp;gt;&amp;gt;&lt;/div&gt;" style="edgeLabel;html=1;align=center;verticalAlign=middle;resizable=0;points=[];" parent="vlGGAMGWwkjEIU3gaFYN-13" vertex="1" connectable="0">
          <mxGeometry x="-0.0155" y="2" relative="1" as="geometry">
            <mxPoint y="-12" as="offset" />
          </mxGeometry>
        </mxCell>
        <mxCell id="vlGGAMGWwkjEIU3gaFYN-37" style="edgeStyle=none;rounded=0;orthogonalLoop=1;jettySize=auto;html=1;exitX=0;exitY=1;exitDx=0;exitDy=0;entryX=1;entryY=0;entryDx=0;entryDy=0;dashed=1;" parent="1" source="vlGGAMGWwkjEIU3gaFYN-9" target="vlGGAMGWwkjEIU3gaFYN-34" edge="1">
          <mxGeometry relative="1" as="geometry" />
        </mxCell>
        <mxCell id="vlGGAMGWwkjEIU3gaFYN-38" value="&amp;lt;&amp;lt;extend&amp;gt;&amp;gt;" style="edgeLabel;html=1;align=center;verticalAlign=middle;resizable=0;points=[];" parent="vlGGAMGWwkjEIU3gaFYN-37" vertex="1" connectable="0">
          <mxGeometry x="0.0285" y="-1" relative="1" as="geometry">
            <mxPoint as="offset" />
          </mxGeometry>
        </mxCell>
        <mxCell id="vlGGAMGWwkjEIU3gaFYN-9" value="View Map information" style="ellipse;whiteSpace=wrap;html=1;" parent="1" vertex="1">
          <mxGeometry x="920" y="600" width="120" height="80" as="geometry" />
        </mxCell>
        <mxCell id="vlGGAMGWwkjEIU3gaFYN-15" style="edgeStyle=none;rounded=0;orthogonalLoop=1;jettySize=auto;html=1;exitX=0;exitY=1;exitDx=0;exitDy=0;entryX=1;entryY=0;entryDx=0;entryDy=0;dashed=1;endArrow=open;endFill=0;" parent="1" source="vlGGAMGWwkjEIU3gaFYN-10" target="vlGGAMGWwkjEIU3gaFYN-7" edge="1">
          <mxGeometry relative="1" as="geometry" />
        </mxCell>
        <mxCell id="vlGGAMGWwkjEIU3gaFYN-19" value="&lt;div&gt;&amp;lt;&amp;lt;extend&amp;gt;&amp;gt;&lt;/div&gt;" style="edgeLabel;html=1;align=center;verticalAlign=middle;resizable=0;points=[];" parent="vlGGAMGWwkjEIU3gaFYN-15" vertex="1" connectable="0">
          <mxGeometry x="0.0448" y="-2" relative="1" as="geometry">
            <mxPoint x="4" y="-11" as="offset" />
          </mxGeometry>
        </mxCell>
        <mxCell id="vlGGAMGWwkjEIU3gaFYN-10" value="Navigate" style="ellipse;whiteSpace=wrap;html=1;" parent="1" vertex="1">
          <mxGeometry x="920" y="440" width="120" height="80" as="geometry" />
        </mxCell>
        <mxCell id="vlGGAMGWwkjEIU3gaFYN-16" style="edgeStyle=none;rounded=0;orthogonalLoop=1;jettySize=auto;html=1;exitX=0.5;exitY=0;exitDx=0;exitDy=0;entryX=0.5;entryY=1;entryDx=0;entryDy=0;dashed=1;endArrow=open;endFill=0;" parent="1" source="vlGGAMGWwkjEIU3gaFYN-11" target="vlGGAMGWwkjEIU3gaFYN-7" edge="1">
          <mxGeometry relative="1" as="geometry" />
        </mxCell>
        <mxCell id="vlGGAMGWwkjEIU3gaFYN-17" value="&lt;div&gt;&amp;lt;&amp;lt;extend&amp;gt;&amp;gt;&lt;/div&gt;" style="edgeLabel;html=1;align=center;verticalAlign=middle;resizable=0;points=[];" parent="vlGGAMGWwkjEIU3gaFYN-16" vertex="1" connectable="0">
          <mxGeometry x="0.0493" y="1" relative="1" as="geometry">
            <mxPoint x="4" y="-8" as="offset" />
          </mxGeometry>
        </mxCell>
        <mxCell id="vlGGAMGWwkjEIU3gaFYN-36" style="edgeStyle=none;rounded=0;orthogonalLoop=1;jettySize=auto;html=1;exitX=0.5;exitY=1;exitDx=0;exitDy=0;entryX=0.5;entryY=0;entryDx=0;entryDy=0;dashed=1;" parent="1" source="vlGGAMGWwkjEIU3gaFYN-11" target="vlGGAMGWwkjEIU3gaFYN-34" edge="1">
          <mxGeometry relative="1" as="geometry" />
        </mxCell>
        <mxCell id="vlGGAMGWwkjEIU3gaFYN-39" value="&amp;lt;&amp;lt;include&amp;gt;&amp;gt;" style="edgeLabel;html=1;align=center;verticalAlign=middle;resizable=0;points=[];" parent="vlGGAMGWwkjEIU3gaFYN-36" vertex="1" connectable="0">
          <mxGeometry x="-0.255" y="-1" relative="1" as="geometry">
            <mxPoint as="offset" />
          </mxGeometry>
        </mxCell>
        <mxCell id="vlGGAMGWwkjEIU3gaFYN-11" value="View location information" style="ellipse;whiteSpace=wrap;html=1;" parent="1" vertex="1">
          <mxGeometry x="680" y="760" width="120" height="80" as="geometry" />
        </mxCell>
        <mxCell id="vlGGAMGWwkjEIU3gaFYN-21" value="Logged in User" style="shape=umlActor;verticalLabelPosition=bottom;verticalAlign=top;html=1;outlineConnect=0;" parent="1" vertex="1">
          <mxGeometry x="520" y="280" width="40" height="80" as="geometry" />
        </mxCell>
        <mxCell id="vlGGAMGWwkjEIU3gaFYN-32" style="edgeStyle=none;rounded=0;orthogonalLoop=1;jettySize=auto;html=1;exitX=0.5;exitY=1;exitDx=0;exitDy=0;entryX=0.5;entryY=0;entryDx=0;entryDy=0;dashed=1;" parent="1" source="vlGGAMGWwkjEIU3gaFYN-23" target="vlGGAMGWwkjEIU3gaFYN-7" edge="1">
          <mxGeometry relative="1" as="geometry" />
        </mxCell>
        <mxCell id="vlGGAMGWwkjEIU3gaFYN-33" value="&amp;lt;&amp;lt;extend&amp;gt;&amp;gt;" style="edgeLabel;html=1;align=center;verticalAlign=middle;resizable=0;points=[];" parent="vlGGAMGWwkjEIU3gaFYN-32" vertex="1" connectable="0">
          <mxGeometry x="-0.195" y="-2" relative="1" as="geometry">
            <mxPoint as="offset" />
          </mxGeometry>
        </mxCell>
        <mxCell id="vlGGAMGWwkjEIU3gaFYN-23" value="Retrieve saved landmarks" style="ellipse;whiteSpace=wrap;html=1;" parent="1" vertex="1">
          <mxGeometry x="680" y="440" width="120" height="80" as="geometry" />
        </mxCell>
        <mxCell id="vlGGAMGWwkjEIU3gaFYN-26" style="edgeStyle=none;rounded=0;orthogonalLoop=1;jettySize=auto;html=1;exitX=0;exitY=0.5;exitDx=0;exitDy=0;endArrow=none;endFill=0;" parent="1" source="vlGGAMGWwkjEIU3gaFYN-24" edge="1">
          <mxGeometry relative="1" as="geometry">
            <mxPoint x="540" y="319.9655172413793" as="targetPoint" />
          </mxGeometry>
        </mxCell>
        <mxCell id="k6tFKFhYTFU5RBgOVl7j-1" style="edgeStyle=orthogonalEdgeStyle;rounded=0;orthogonalLoop=1;jettySize=auto;html=1;entryX=0.5;entryY=0;entryDx=0;entryDy=0;endArrow=open;endFill=0;dashed=1;" parent="1" source="vlGGAMGWwkjEIU3gaFYN-24" target="vlGGAMGWwkjEIU3gaFYN-23" edge="1">
          <mxGeometry relative="1" as="geometry" />
        </mxCell>
        <mxCell id="k6tFKFhYTFU5RBgOVl7j-4" value="&amp;lt;&amp;lt;include&amp;gt;&amp;gt;" style="edgeLabel;html=1;align=center;verticalAlign=middle;resizable=0;points=[];" parent="k6tFKFhYTFU5RBgOVl7j-1" connectable="0" vertex="1">
          <mxGeometry x="-0.2571" y="2" relative="1" as="geometry">
            <mxPoint as="offset" />
          </mxGeometry>
        </mxCell>
        <mxCell id="k6tFKFhYTFU5RBgOVl7j-2" style="edgeStyle=orthogonalEdgeStyle;rounded=0;orthogonalLoop=1;jettySize=auto;html=1;exitX=0.5;exitY=0;exitDx=0;exitDy=0;entryX=0.5;entryY=1;entryDx=0;entryDy=0;endArrow=open;endFill=0;dashed=1;" parent="1" source="vlGGAMGWwkjEIU3gaFYN-24" target="vlGGAMGWwkjEIU3gaFYN-28" edge="1">
          <mxGeometry relative="1" as="geometry" />
        </mxCell>
        <mxCell id="k6tFKFhYTFU5RBgOVl7j-3" value="&amp;lt;&amp;lt;include&amp;gt;&amp;gt;" style="edgeLabel;html=1;align=center;verticalAlign=middle;resizable=0;points=[];" parent="k6tFKFhYTFU5RBgOVl7j-2" connectable="0" vertex="1">
          <mxGeometry x="-0.1286" relative="1" as="geometry">
            <mxPoint as="offset" />
          </mxGeometry>
        </mxCell>
        <mxCell id="vlGGAMGWwkjEIU3gaFYN-24" value="Authenticate" style="ellipse;whiteSpace=wrap;html=1;" parent="1" vertex="1">
          <mxGeometry x="680" y="280" width="120" height="80" as="geometry" />
        </mxCell>
        <mxCell id="vlGGAMGWwkjEIU3gaFYN-25" style="edgeStyle=none;rounded=0;orthogonalLoop=1;jettySize=auto;html=1;exitX=0;exitY=0;exitDx=0;exitDy=0;entryX=0.5;entryY=0.5;entryDx=0;entryDy=0;entryPerimeter=0;endArrow=none;endFill=0;" parent="1" source="vlGGAMGWwkjEIU3gaFYN-23" target="vlGGAMGWwkjEIU3gaFYN-21" edge="1">
          <mxGeometry relative="1" as="geometry" />
        </mxCell>
        <mxCell id="vlGGAMGWwkjEIU3gaFYN-29" style="edgeStyle=none;rounded=0;orthogonalLoop=1;jettySize=auto;html=1;exitX=0;exitY=1;exitDx=0;exitDy=0;endArrow=none;endFill=0;" parent="1" source="vlGGAMGWwkjEIU3gaFYN-28" edge="1">
          <mxGeometry relative="1" as="geometry">
            <mxPoint x="540" y="320" as="targetPoint" />
          </mxGeometry>
        </mxCell>
        <mxCell id="vlGGAMGWwkjEIU3gaFYN-28" value="Retrieve user preferences" style="ellipse;whiteSpace=wrap;html=1;" parent="1" vertex="1">
          <mxGeometry x="680" y="120" width="120" height="80" as="geometry" />
        </mxCell>
        <mxCell id="vlGGAMGWwkjEIU3gaFYN-34" value="Search for locations" style="ellipse;whiteSpace=wrap;html=1;" parent="1" vertex="1">
          <mxGeometry x="680" y="920" width="120" height="80" as="geometry" />
        </mxCell>
      </root>
    </mxGraphModel>
  </diagram>
</mxfile>
